v 0.000000 0.000000 -0.500000
v 0.000000 1.000000 -0.500000
v 0.097545 1.000000 -0.490392
v 0.097545 0.000000 -0.490393
v 0.191342 1.000000 -0.461940
v 0.191342 0.000000 -0.461940
v 0.277785 1.000000 -0.415735
v 0.277785 0.000000 -0.415735
v 0.353554 1.000000 -0.353553
v 0.353554 0.000000 -0.353554
v 0.415735 1.000000 -0.277785
v 0.415735 0.000000 -0.277785
v 0.461940 1.000000 -0.191341
v 0.461940 0.000000 -0.191342
v 0.490393 1.000000 -0.097545
v 0.490393 0.000000 -0.097545
v 0.500000 1.000000 0.000000
v 0.500000 0.000000 0.000000
v 0.490393 1.000000 0.097545
v 0.490393 -0.000000 0.097545
v 0.461940 1.000000 0.191342
v 0.461940 -0.000000 0.191342
v 0.415735 1.000000 0.277785
v 0.415735 -0.000000 0.277785
v 0.353554 1.000000 0.353554
v 0.353554 -0.000000 0.353554
v 0.277785 1.000000 0.415735
v 0.277785 -0.000000 0.415735
v 0.191342 1.000000 0.461940
v 0.191342 -0.000000 0.461940
v 0.097545 1.000000 0.490393
v 0.097545 -0.000000 0.490393
v 0.000000 1.000000 0.500000
v 0.000000 -0.000000 0.500000
v -0.097545 1.000000 0.490393
v -0.097545 -0.000000 0.490393
v -0.191342 1.000000 0.461940
v -0.191342 -0.000000 0.461940
v -0.277786 1.000000 0.415735
v -0.277786 -0.000000 0.415734
v -0.353554 1.000000 0.353553
v -0.353554 -0.000000 0.353553
v -0.415735 1.000000 0.277785
v -0.415735 -0.000000 0.277785
v -0.461940 1.000000 0.191342
v -0.461940 -0.000000 0.191342
v -0.490393 1.000000 0.097545
v -0.490393 -0.000000 0.097544
v -0.500000 1.000000 -0.000000
v -0.500000 0.000000 -0.000000
v -0.490393 1.000000 -0.097545
v -0.490393 0.000000 -0.097545
v -0.461940 1.000000 -0.191342
v -0.461940 0.000000 -0.191342
v -0.415734 1.000000 -0.277785
v -0.415734 0.000000 -0.277786
v -0.353553 1.000000 -0.353554
v -0.353553 0.000000 -0.353554
v -0.277784 1.000000 -0.415735
v -0.277784 0.000000 -0.415735
v -0.191341 1.000000 -0.461940
v -0.191341 0.000000 -0.461940
v -0.097544 1.000000 -0.490393
v -0.097544 0.000000 -0.490393
vn 0.0000 0.0000 -1.0000
vn 0.1951 0.0000 -0.9808
vn 0.3827 0.0000 -0.9239
vn 0.5556 0.0000 -0.8315
vn 0.7071 0.0000 -0.7071
vn 0.8315 0.0000 -0.5556
vn 0.9239 0.0000 -0.3827
vn 0.9808 0.0000 -0.1951
vn 1.0000 -0.0000 0.0000
vn 0.9808 -0.0000 0.1951
vn 0.9239 -0.0000 0.3827
vn 0.8315 -0.0000 0.5556
vn 0.7071 -0.0000 0.7071
vn 0.5556 -0.0000 0.8315
vn 0.3827 -0.0000 0.9239
vn 0.1951 -0.0000 0.9808
vn 0.0000 -0.0000 1.0000
vn -0.1951 -0.0000 0.9808
vn -0.3827 -0.0000 0.9239
vn -0.5556 -0.0000 0.8315
vn -0.7071 -0.0000 0.7071
vn -0.8315 -0.0000 0.5556
vn -0.9239 -0.0000 0.3827
vn -0.9808 -0.0000 0.1951
vn -1.0000 0.0000 0.0000
vn -0.9808 0.0000 -0.1951
vn -0.9239 0.0000 -0.3827
vn -0.8315 0.0000 -0.5556
vn -0.7071 0.0000 -0.7071
vn -0.5556 0.0000 -0.8315
vn -0.3827 0.0000 -0.9239
vn -0.0000 1.0000 0.0000
vn -0.1951 0.0000 -0.9808
vn 0.0000 -1.0000 -0.0000
f 1//1 2//1 3//2 4//2
f 4//2 3//2 5//3 6//3
f 6//3 5//3 7//4 8//4
f 8//4 7//4 9//5 10//5
f 10//5 9//5 11//6 12//6
f 12//6 11//6 13//7 14//7
f 14//7 13//7 15//8 16//8
f 16//8 15//8 17//9 18//9
f 18//9 17//9 19//10 20//10
f 20//10 19//10 21//11 22//11
f 22//11 21//11 23//12 24//12
f 24//12 23//12 25//13 26//13
f 26//13 25//13 27//14 28//14
f 28//14 27//14 29//15 30//15
f 30//15 29//15 31//16 32//16
f 32//16 31//16 33//17 34//17
f 34//17 33//17 35//18 36//18
f 36//18 35//18 37//19 38//19
f 38//19 37//19 39//20 40//20
f 40//20 39//20 41//21 42//21
f 42//21 41//21 43//22 44//22
f 44//22 43//22 45//23 46//23
f 46//23 45//23 47//24 48//24
f 48//24 47//24 49//25 50//25
f 50//25 49//25 51//26 52//26
f 52//26 51//26 53//27 54//27
f 54//27 53//27 55//28 56//28
f 56//28 55//28 57//29 58//29
f 58//29 57//29 59//30 60//30
f 60//30 59//30 61//31 62//31
f 3//32 2//32 63//32 61//32 59//32 57//32 55//32 53//32 51//32 49//32 47//32 45//32 43//32 41//32 39//32 37//32 35//32 33//32 31//32 29//32 27//32 25//32 23//32 21//32 19//32 17//32 15//32 13//32 11//32 9//32 7//32 5//32
f 62//31 61//31 63//33 64//33
f 64//33 63//33 2//1 1//1
f 1//34 4//34 6//34 8//34 10//34 12//34 14//34 16//34 18//34 20//34 22//34 24//34 26//34 28//34 30//34 32//34 34//34 36//34 38//34 40//34 42//34 44//34 46//34 48//34 50//34 52//34 54//34 56//34 58//34 60//34 62//34 64//34
